<?xml version="1.0" encoding="utf-8"?>
<!-- Generator: Adobe Illustrator 23.0.3, SVG Export Plug-In . SVG Version: 6.00 Build 0)  -->
<svg version="1.1" xmlns="http://www.w3.org/2000/svg" xmlns:xlink="http://www.w3.org/1999/xlink" x="0px" y="0px"
	 viewBox="0 0 841.89 538.66" style="enable-background:new 0 0 841.89 538.66;" xml:space="preserve">
<style type="text/css">
	.st0{display:none;}
	.st1{display:inline;}
</style>
<g id="Background">
</g>
<g id="Accademium_Text">
	<g>
		<path d="M316.64,287.94h-12.17l-2.66-9.43h-16.34l-3.1,9.43h-11.81l16.63-47.81h12.96L316.64,287.94z M298.56,269.36l-4.97-17.35
			l-5.33,17.35H298.56z"/>
		<path d="M348.32,265.19H337.8c-0.24-1.54-0.89-2.75-1.94-3.64c-1.06-0.89-2.35-1.33-3.89-1.33c-4.22,0-6.34,3.12-6.34,9.36
			c0,3.36,0.59,5.96,1.76,7.81c1.18,1.85,2.6,2.77,4.28,2.77c1.68,0,3.07-0.43,4.18-1.3c1.1-0.86,1.73-2.11,1.87-3.74h10.51
			c-0.48,4.08-2.26,7.39-5.33,9.94c-3.07,2.54-6.79,3.82-11.16,3.82c-4.99,0-8.98-1.63-11.95-4.9c-2.98-3.26-4.46-7.99-4.46-14.18
			c0-6.14,1.48-10.72,4.43-13.72c2.95-3,7.04-4.5,12.28-4.5c4.7,0,8.52,1.22,11.45,3.67C346.42,257.7,348.03,261.01,348.32,265.19z"
			/>
		<path d="M383.16,265.19h-10.51c-0.24-1.54-0.89-2.75-1.94-3.64c-1.06-0.89-2.35-1.33-3.89-1.33c-4.22,0-6.34,3.12-6.34,9.36
			c0,3.36,0.59,5.96,1.76,7.81c1.18,1.85,2.6,2.77,4.28,2.77c1.68,0,3.07-0.43,4.18-1.3c1.1-0.86,1.73-2.11,1.87-3.74h10.51
			c-0.48,4.08-2.26,7.39-5.33,9.94c-3.07,2.54-6.79,3.82-11.16,3.82c-4.99,0-8.98-1.63-11.95-4.9c-2.98-3.26-4.46-7.99-4.46-14.18
			c0-6.14,1.48-10.72,4.43-13.72c2.95-3,7.04-4.5,12.28-4.5c4.7,0,8.52,1.22,11.45,3.67C381.27,257.7,382.88,261.01,383.16,265.19z"
			/>
		<path d="M416.93,287.94h-9.14c-0.38-0.91-0.62-1.92-0.72-3.02c-2.06,2.64-5.59,3.96-10.58,3.96c-7.82,0-11.74-3.41-11.74-10.22
			c0-2.21,0.38-4.07,1.15-5.58c0.77-1.51,1.98-2.7,3.64-3.56c1.66-0.86,3.32-1.51,5-1.94c1.68-0.43,3.91-0.86,6.7-1.3
			c2.02-0.29,3.38-0.68,4.1-1.19c0.72-0.5,1.08-1.31,1.08-2.41c0-0.96-0.49-1.72-1.48-2.27c-0.98-0.55-2.24-0.83-3.78-0.83
			c-3.5,0-5.45,1.49-5.83,4.46h-9.43c0.14-8.3,5.4-12.46,15.77-12.46c5.47,0,9.38,1.16,11.74,3.49c2.35,2.33,3.53,5.82,3.53,10.48
			V287.94z M406.49,274.33l0.07-3.02c-0.67,0.62-2.4,1.22-5.18,1.8c-2.45,0.53-4.13,1.16-5.04,1.91c-0.91,0.74-1.37,1.76-1.37,3.06
			c0,2.26,1.27,3.38,3.82,3.38c2.4,0,4.27-0.7,5.62-2.09C405.75,277.98,406.44,276.3,406.49,274.33z"/>
		<path d="M454.8,287.94H444.8l-0.07-4.18c-1.97,3.41-5.04,5.11-9.22,5.11c-4.56,0-8.26-1.7-11.09-5.11
			c-2.83-3.41-4.25-8.04-4.25-13.9c0-5.38,1.28-9.77,3.85-13.18c2.57-3.41,6.08-5.11,10.55-5.11c4.56,0,7.9,1.75,10.01,5.26v-17.28
			h10.22V287.94z M437.81,280.38c2.11,0,3.83-0.84,5.15-2.52c1.32-1.68,1.98-4.06,1.98-7.13c0-6.82-2.38-10.22-7.13-10.22
			c-4.71,0-7.06,3.31-7.06,9.94c0,3.17,0.64,5.62,1.91,7.34C433.94,279.51,435.65,280.38,437.81,280.38z"/>
		<path d="M492.03,272.89h-23.62c0.14,2.26,0.85,4.1,2.12,5.54c1.27,1.44,2.89,2.16,4.86,2.16c1.34,0,2.53-0.29,3.56-0.86
			s1.67-1.32,1.91-2.23h10.73c-1.06,3.6-2.98,6.4-5.76,8.39c-2.78,1.99-6.1,2.99-9.94,2.99c-11.95,0-17.93-6.43-17.93-19.3
			c0-5.52,1.52-9.9,4.57-13.14c3.05-3.24,7.28-4.86,12.71-4.86c5.47,0,9.64,1.67,12.49,5c2.86,3.34,4.28,8.27,4.28,14.8V272.89z
			 M468.63,266.63h12.96c-0.14-2.26-0.79-3.95-1.94-5.08c-1.15-1.13-2.66-1.69-4.54-1.69c-1.83,0-3.31,0.58-4.46,1.73
			C469.49,262.74,468.82,264.42,468.63,266.63z"/>
		<path d="M546.24,287.94h-10.22v-21.82c0-1.78-0.41-3.13-1.22-4.07c-0.82-0.94-1.92-1.4-3.31-1.4c-1.39,0-2.65,0.48-3.78,1.44
			c-1.13,0.96-1.69,2.35-1.69,4.18v21.67h-10.44v-21.74c0-2.16-0.38-3.66-1.15-4.5c-0.77-0.84-2.04-1.26-3.82-1.26
			c-3.31,0-4.97,1.87-4.97,5.62v21.89H495.2v-35.42h9.86v4.46c1.97-3.6,5.3-5.4,10.01-5.4c2.35,0,4.27,0.37,5.76,1.12
			c1.49,0.75,2.86,2.03,4.1,3.85c1.78-3.31,4.94-4.97,9.5-4.97c3.55,0,6.41,1.13,8.57,3.38c2.16,2.26,3.24,4.99,3.24,8.21V287.94z"
			/>
		<path d="M560.5,248.27h-10.44v-8.71h10.44V248.27z M560.5,287.94h-10.44v-35.42h10.44V287.94z"/>
		<path d="M596.86,287.94h-9.86v-4.32c-2.16,3.5-5.59,5.26-10.3,5.26c-3.55,0-6.46-1.12-8.71-3.35c-2.26-2.23-3.38-5.08-3.38-8.53
			v-24.48h10.44v22.18c0,3.84,1.8,5.76,5.4,5.76c2.21,0,3.77-0.71,4.68-2.12c0.91-1.42,1.37-3.61,1.37-6.59v-19.22h10.37V287.94z"/>
		<path d="M651.86,287.94h-10.22v-21.82c0-1.78-0.41-3.13-1.22-4.07c-0.82-0.94-1.92-1.4-3.31-1.4c-1.39,0-2.65,0.48-3.78,1.44
			c-1.13,0.96-1.69,2.35-1.69,4.18v21.67h-10.44v-21.74c0-2.16-0.38-3.66-1.15-4.5c-0.77-0.84-2.04-1.26-3.82-1.26
			c-3.31,0-4.97,1.87-4.97,5.62v21.89h-10.44v-35.42h9.86v4.46c1.97-3.6,5.3-5.4,10.01-5.4c2.35,0,4.27,0.37,5.76,1.12
			c1.49,0.75,2.86,2.03,4.1,3.85c1.77-3.31,4.94-4.97,9.5-4.97c3.55,0,6.41,1.13,8.57,3.38c2.16,2.26,3.24,4.99,3.24,8.21V287.94z"
			/>
	</g>
</g>
<g id="Graduation_Cap">
	<path d="M204.95,268.76l-28.56-8.8v20.47c0,3.73,3.39,5.46,7.63,7.13c13.74,5.38,27.7,5.45,41.92,0.03
		c4.25-1.62,7.57-3.39,7.57-7.11v-20.51L204.95,268.76z"/>
	<polygon points="204.95,230.94 152.55,247.07 204.95,263.21 257.34,247.07 	"/>
	<g>
		<path d="M166.68,285.75h-2.23v-34.67c0-0.44,0.42-0.81,0.97-0.87l39.38-4.01l0.29,1.74l-38.41,3.91V285.75z"/>
	</g>
	<path d="M168.79,287.52h-6.44l0.71-6.71c0.13-1.25,1.23-2.16,2.46-2.16l0,0c1.23,0,2.34,0.91,2.48,2.16L168.79,287.52z"/>
</g>
<g id="Graduation_Cap_copy" class="st0">
	<path class="st1" d="M204.95,268.76l-28.56-8.8v20.47c0,3.73,3.39,5.46,7.63,7.13c13.74,5.38,27.7,5.45,41.92,0.03
		c4.25-1.62,7.57-3.39,7.57-7.11v-20.51L204.95,268.76z"/>
	<polygon class="st1" points="204.95,230.94 152.55,247.07 204.95,263.21 257.34,247.07 	"/>
	<g class="st1">
		<path d="M166.68,285.75h-2.23v-34.67c0-0.44,0.42-0.81,0.97-0.87l39.38-4.01l0.29,1.74l-38.41,3.91V285.75z"/>
	</g>
	<path class="st1" d="M168.79,287.52h-6.44l0.71-6.71c0.13-1.25,1.23-2.16,2.46-2.16l0,0c1.23,0,2.34,0.91,2.48,2.16L168.79,287.52z
		"/>
</g>
</svg>
